<svg width="34" height="27" viewBox="0 0 34 27" fill="none" xmlns="http://www.w3.org/2000/svg">
<path fill-rule="evenodd" clip-rule="evenodd" d="M0.394877 0.602439C0.139244 0.906145 -0.000641694 1.29053 2.21309e-06 1.6875V21.9375C2.21309e-06 23.2802 0.533371 24.5678 1.48277 25.5172C2.43218 26.4666 3.71984 27 5.0625 27H28.6875C30.0302 27 31.3178 26.4666 32.2672 25.5172C33.2166 24.5678 33.75 23.2802 33.75 21.9375V1.70438C33.7516 1.45292 33.6973 1.20424 33.5911 0.976315C33.4849 0.74839 33.3294 0.546912 33.1357 0.38644C32.8358 0.137929 32.4588 0.0013326 32.0692 1.98793e-06H1.6875C1.44107 -0.000376813 1.19756 0.0533843 0.9742 0.157485C0.750836 0.261585 0.553068 0.413483 0.394877 0.602439ZM3.375 5.76113V21.9375C3.375 22.3851 3.55279 22.8143 3.86926 23.1307C4.18573 23.4472 4.61495 23.625 5.0625 23.625H28.6875C29.1351 23.625 29.5643 23.4472 29.8807 23.1307C30.1972 22.8143 30.375 22.3851 30.375 21.9375V5.76113L18.0681 18.0681C17.7516 18.3844 17.3225 18.5621 16.875 18.5621C16.4275 18.5621 15.9984 18.3844 15.6819 18.0681L3.375 5.76113Z" fill="white"/>
</svg>
